<svg xmlns="http://www.w3.org/2000/svg" width="1600" height="900" viewBox="0 0 1600 900" role="img" aria-label="Piles de palettes de bois stylisées">
  <defs>
    <linearGradient id="wood" x1="0" y1="0" x2="1" y2="1">
      <stop offset="0%" stop-color="#c99a63"/>
      <stop offset="100%" stop-color="#a9783f"/>
    </linearGradient>
    <linearGradient id="wood-dark" x1="0" y1="0" x2="1" y2="1">
      <stop offset="0%" stop-color="#b7844d"/>
      <stop offset="100%" stop-color="#8b612f"/>
    </linearGradient>
    <pattern id="grain" width="120" height="60" patternUnits="userSpaceOnUse">
      <rect width="120" height="60" fill="url(#wood)" />
      <path d="M0 18h120M10 8h30M70 26h40M40 42h70M12 54h24" stroke="#ad7b44" stroke-width="4" stroke-linecap="round" opacity="0.5"/>
    </pattern>
  </defs>
  <rect width="1600" height="900" fill="#0f1f13"/>
  <rect width="1600" height="900" fill="url(#grain)" opacity="0.35"/>
  <g transform="translate(60,160)">
    <g transform="translate(0,260) scale(1.05)">
      <rect x="0" y="180" width="520" height="70" rx="14" fill="url(#wood-dark)" opacity="0.95"/>
      <rect x="0" y="120" width="520" height="70" rx="14" fill="url(#wood)" opacity="0.9"/>
      <rect x="0" y="60" width="520" height="70" rx="14" fill="url(#wood-dark)" opacity="0.92"/>
      <rect x="0" y="0" width="520" height="70" rx="14" fill="url(#wood)" opacity="0.94"/>
    </g>
    <g transform="translate(540,220) scale(1.05)">
      <rect x="0" y="180" width="420" height="70" rx="14" fill="url(#wood-dark)" opacity="0.95"/>
      <rect x="0" y="120" width="420" height="70" rx="14" fill="url(#wood)" opacity="0.9"/>
      <rect x="0" y="60" width="420" height="70" rx="14" fill="url(#wood-dark)" opacity="0.92"/>
      <rect x="0" y="0" width="420" height="70" rx="14" fill="url(#wood)" opacity="0.94"/>
    </g>
    <g transform="translate(1000,180) scale(1.05)">
      <rect x="0" y="180" width="420" height="70" rx="14" fill="url(#wood-dark)" opacity="0.95"/>
      <rect x="0" y="120" width="420" height="70" rx="14" fill="url(#wood)" opacity="0.9"/>
      <rect x="0" y="60" width="420" height="70" rx="14" fill="url(#wood-dark)" opacity="0.92"/>
      <rect x="0" y="0" width="420" height="70" rx="14" fill="url(#wood)" opacity="0.94"/>
    </g>
  </g>
  <rect x="0" y="0" width="1600" height="900" fill="url(#grain)" opacity="0.18"/>
  <rect x="0" y="0" width="1600" height="900" fill="url(#wood-dark)" opacity="0.12"/>
  <rect width="1600" height="900" fill="url(#wood)" opacity="0.05"/>
</svg>
